<?xml version="1.0" ?><svg id="Layer_1" style="enable-background:new 0 0 512 512;" version="1.1" viewBox="0 0 512 512" xml:space="preserve" xmlns="http://www.w3.org/2000/svg" xmlns:xlink="http://www.w3.org/1999/xlink"><path d="M256,131c-69,0-125,56-125,125s56,125,125,125s125-56,125-125S325,131,256,131z M331.3,200.5l-81.6,123.4  c-1.9,2.9-5.1,4.7-8.5,5c-0.3,0-0.5,0-0.8,0c-3.2,0-6.2-1.3-8.3-3.7l-50.4-56.4c-4.1-4.6-3.7-11.7,0.9-15.8  c4.6-4.1,11.7-3.7,15.8,0.9l40.7,45.7l73.6-111.3c3.4-5.2,10.3-6.6,15.5-3.2C333.3,188.4,334.7,195.3,331.3,200.5z"/></svg>